PathFileType	4	(X/Y/Z)	C:\Users\86182\Documents\cortex\Trimmed_M3_H14.trc
DataRate	CameraRate	NumFrames	NumMarkers	Units	OrigDataRate	OrigDataStartFrame	OrigNumFrames
100.00	100.00	       72	2	mm	100.00	1	       901
Frame#	Time	gripper			box			
		X1	Y1	Z1	X2	Y2	Z2	

1	0.000	268.25018	172.45421	192.37007	269.69479	169.50264	57.11400	
2	0.010	268.25101	172.45381	192.37015	269.69485	169.50266	57.11404	
3	0.020	268.25211	172.45341	192.37083	269.69485	169.50270	57.11407	
4	0.030	268.25351	172.45296	192.37196	269.69482	169.50273	57.11407	
5	0.040	268.25504	172.45247	192.37321	269.69473	169.50276	57.11407	
6	0.050	268.25638	172.45203	192.37424	269.69467	169.50276	57.11404	
7	0.060	268.25742	172.45169	192.37505	269.69461	169.50273	57.11398	
8	0.070	268.25806	172.45154	192.37582	269.69461	169.50261	57.11388	
9	0.080	268.25824	172.45161	192.37660	269.69464	169.50240	57.11373	
10	0.090	268.25806	172.45184	192.37723	269.69479	169.50203	57.11351	
11	0.100	268.25760	172.45215	192.37756	269.69507	169.50153	57.11324	
12	0.110	268.25711	172.45242	192.37775	269.69553	169.50087	57.11293	
13	0.120	268.25699	172.45258	192.37814	269.69614	169.50017	57.11265	
14	0.130	268.25729	172.45261	192.37897	269.69678	169.49957	57.11248	
15	0.140	268.25787	172.45258	192.38014	269.69717	169.49933	57.11248	
16	0.150	268.25854	172.45255	192.38153	269.69714	169.49956	57.11265	
17	0.160	268.25922	172.45251	192.38298	269.69675	169.50015	57.11293	
18	0.170	268.25995	172.45245	192.38438	269.69617	169.50085	57.11323	
19	0.180	268.26071	172.45230	192.38550	269.69559	169.50151	57.11347	
20	0.190	268.26147	172.45207	192.38617	269.69507	169.50203	57.11364	
21	0.200	268.26215	172.45178	192.38634	269.69464	169.50240	57.11373	
22	0.210	268.26263	172.45151	192.38617	269.69437	169.50262	57.11377	
23	0.220	268.26285	172.45134	192.38588	269.69421	169.50273	57.11379	
24	0.230	268.26282	172.45129	192.38559	269.69418	169.50278	57.11382	
25	0.240	268.26266	172.45126	192.38509	269.69427	169.50276	57.11385	
26	0.250	268.26263	172.45108	192.38414	269.69440	169.50275	57.11389	
27	0.260	268.26288	172.45064	192.38272	269.69452	169.50272	57.11392	
28	0.270	268.26328	172.45007	192.38098	269.69461	169.50269	57.11395	
29	0.280	268.26343	172.44960	192.37921	269.69467	169.50267	57.11396	
30	0.290	268.26291	172.44954	192.37775	269.69470	169.50266	57.11398	
31	0.300	268.26163	172.44994	192.37668	269.69473	169.50267	57.11398	
32	0.310	268.25989	172.45065	192.37596	269.69473	169.50267	57.11398	
33	0.320	268.25806	172.45148	192.37555	269.69473	169.50267	57.11398	
34	0.330	268.25644	172.45230	192.37563	269.69473	169.50266	57.11398	
35	0.340	268.25543	172.45299	192.37648	269.69479	169.50259	57.11396	
36	0.350	268.25534	172.45340	192.37819	269.69489	169.50250	57.11392	
37	0.360	268.25626	172.45341	192.38034	269.69501	169.50235	57.11386	
38	0.370	268.25793	172.45300	192.38232	269.69525	169.50211	57.11378	
39	0.380	268.26007	172.45226	192.38368	269.69553	169.50182	57.11369	
40	0.390	268.26224	172.45128	192.38425	269.69583	169.50151	57.11358	
41	0.400	268.26407	172.45033	192.38403	269.69608	169.50125	57.11349	
42	0.410	268.26508	172.44966	192.38330	269.69617	169.50114	57.11346	
43	0.420	268.26505	172.44946	192.38232	269.69608	169.50125	57.11349	
44	0.430	268.26410	172.44977	192.38153	269.69583	169.50151	57.11359	
45	0.440	268.26260	172.45045	192.38129	269.69553	169.50183	57.11369	
46	0.450	268.26086	172.45140	192.38162	269.69525	169.50212	57.11380	
47	0.460	268.25916	172.45238	192.38220	269.69504	169.50235	57.11388	
48	0.470	268.25772	172.45317	192.38260	269.69489	169.50250	57.11394	
49	0.480	268.25671	172.45367	192.38257	269.69479	169.50261	57.11397	
50	0.490	268.25613	172.45383	192.38196	269.69473	169.50266	57.11399	
51	0.500	268.25589	172.45366	192.38065	269.69470	169.50267	57.11399	
52	0.510	268.25592	172.45325	192.37883	269.69470	169.50267	57.11398	
53	0.520	268.25632	172.45268	192.37711	269.69467	169.50267	57.11396	
54	0.530	268.25708	172.45209	192.37611	269.69464	169.50266	57.11393	
55	0.540	268.25800	172.45163	192.37608	269.69458	169.50264	57.11389	
56	0.550	268.25900	172.45129	192.37679	269.69449	169.50262	57.11384	
57	0.560	268.26013	172.45096	192.37790	269.69443	169.50262	57.11379	
58	0.570	268.26141	172.45059	192.37910	269.69434	169.50262	57.11375	
59	0.580	268.26254	172.45026	192.38016	269.69434	169.50262	57.11375	
60	0.590	268.26337	172.45001	192.38097	269.69440	169.50261	57.11378	
61	0.600	268.26398	172.44989	192.38182	269.69452	169.50261	57.11383	
62	0.610	268.26431	172.44998	192.38298	269.69461	169.50261	57.11388	
63	0.620	268.26413	172.45038	192.38438	269.69467	169.50261	57.11391	
64	0.630	268.26331	172.45108	192.38576	269.69467	169.50261	57.11391	
65	0.640	268.26205	172.45195	192.38681	269.69455	169.50261	57.11386	
66	0.650	268.26068	172.45277	192.38745	269.69431	169.50262	57.11375	
67	0.660	268.25946	172.45345	192.38776	269.69394	169.50262	57.11358	
68	0.670	268.25851	172.45393	192.38783	269.69345	169.50264	57.11336	
69	0.680	268.25781	172.45425	192.38771	269.69290	169.50266	57.11311	
70	0.690	268.25729	172.45444	192.38739	269.69247	169.50266	57.11292	
71	0.700	268.25693	172.45453	192.38699	269.69232	169.50267	57.11285	
72	0.710	268.25677	172.45454	192.38673	269.69257	169.50266	57.11295	
